<svg xmlns="http://www.w3.org/2000/svg" style="display:none">
  <symbol id="icon-home" viewBox="0 0 24 24" fill="none" stroke="currentColor" stroke-width="2"><path d="M3 10.5 12 3l9 7.5V21a1 1 0 0 1-1 1h-5v-7H9v7H4a1 1 0 0 1-1-1v-10.5z"/></symbol>
  <symbol id="icon-predict" viewBox="0 0 24 24" fill="none" stroke="currentColor" stroke-width="2"><path d="M4 19h16M6 16V8m4 8V5m4 11v-6m4 6V10"/></symbol>
  <symbol id="icon-info" viewBox="0 0 24 24" fill="none" stroke="currentColor" stroke-width="2"><circle cx="12" cy="12" r="9"/><path d="M12 10v6m0-8h.01"/></symbol>
  <symbol id="icon-help" viewBox="0 0 24 24" fill="none" stroke="currentColor" stroke-width="2"><circle cx="12" cy="12" r="9"/><path d="M9.5 9a2.5 2.5 0 1 1 3.5 2.2c-.9.5-1.5 1.2-1.5 2.3m0 3h.01"/></symbol>
  <symbol id="icon-xray" viewBox="0 0 24 24" fill="none" stroke="currentColor" stroke-width="2"><rect x="3" y="3" width="18" height="18" rx="2"/><path d="M7 17 12 7l5 10"/></symbol>
  <symbol id="icon-skin" viewBox="0 0 24 24" fill="none" stroke="currentColor" stroke-width="2"><circle cx="12" cy="12" r="8"/><circle cx="12" cy="12" r="3"/></symbol>
  <symbol id="icon-heart" viewBox="0 0 24 24" fill="none" stroke="currentColor" stroke-width="2"><path d="M12 20s-7-4.5-7-10a4 4 0 0 1 7-2 4 4 0 0 1 7 2c0 5.5-7 10-7 10z"/></symbol>
  <symbol id="icon-alert" viewBox="0 0 24 24" fill="none" stroke="currentColor" stroke-width="2"><path d="M12 3 2 21h20L12 3z"/><path d="M12 10v4m0 3h.01"/></symbol>
  <symbol id="icon-check" viewBox="0 0 24 24" fill="none" stroke="currentColor" stroke-width="2"><path d="M20 6 9 17l-5-5"/></symbol>
  <symbol id="icon-upload" viewBox="0 0 24 24" fill="none" stroke="currentColor" stroke-width="2"><path d="M12 3v12m0 0 4-4m-4 4-4-4M4 17v2a2 2 0 0 0 2 2h12a2 2 0 0 0 2-2v-2"/></symbol>
</svg>
